<svg width="120" height="113" xmlns="http://www.w3.org/2000/svg" xmlns:xlink="http://www.w3.org/1999/xlink" overflow="hidden"><defs><clipPath id="clip0"><path d="M588 251 708 251 708 364 588 364Z" fill-rule="evenodd" clip-rule="evenodd"/></clipPath></defs><g clip-path="url(#clip0)" transform="translate(-588 -251)"><path d="M683.662 356 612.338 356C601.658 356 593 347.342 593 336.662L593 307 703 307 703 336.662C703 347.342 694.342 356 683.662 356Z" stroke="#A6A6A6" stroke-width="2" stroke-linecap="round" stroke-linejoin="round" stroke-miterlimit="10" fill="#7F7F7F" fill-rule="evenodd"/><path d="M593 272.334C593 262.761 600.761 255 610.334 255L685.666 255C695.239 255 703 262.761 703 272.334L703 341.666C703 351.239 695.239 359 685.666 359L610.334 359C600.761 359 593 351.239 593 341.666Z" stroke="#A6A6A6" stroke-width="8" stroke-linecap="round" stroke-linejoin="round" stroke-miterlimit="10" fill="none" fill-rule="evenodd"/><path d="M593 307 703.147 307" stroke="#A6A6A6" stroke-width="8" stroke-linecap="round" stroke-linejoin="round" stroke-miterlimit="10" fill="none" fill-rule="evenodd"/></g></svg>