<svg width="120" height="113" xmlns="http://www.w3.org/2000/svg" xmlns:xlink="http://www.w3.org/1999/xlink" overflow="hidden"><defs><clipPath id="clip0"><path d="M1000 582 1120 582 1120 695 1000 695Z" fill-rule="evenodd" clip-rule="evenodd"/></clipPath></defs><g clip-path="url(#clip0)" transform="translate(-1000 -582)"><path d="M1101.22 606.878 1073.4 633.825 1085.43 633.342 1073.86 644.089 1096.67 642.233 1064.98 656.894C1067.31 659.126 1069.63 661.359 1071.96 663.59L1050.34 671.564 1051.05 681.667 1036.52 685.189 1034.11 691.275 1008.81 662.011 1009.58 661.777 1010.53 644.903 1026.65 643.979 1042.92 618.325C1045.4 623.791 1047.88 629.258 1050.37 634.724L1070.51 613.004 1064.55 628.817Z" stroke="#A6A6A6" stroke-width="6" stroke-linecap="round" stroke-linejoin="round" stroke-miterlimit="10" fill="#A6A6A6" fill-rule="evenodd"/><path d="M1064.9 628.297C1068.06 628.2 1070.49 628.967 1071.94 630.697 1077.75 637.617 1065.66 657.341 1044.93 674.75 1037.15 681.279 1029.27 686.555 1022.14 690.235L1018.54 691.886 1002.18 673.095 1004.69 669.455C1009.55 663.072 1016.11 656.218 1023.88 649.69 1039.43 636.632 1055.42 628.585 1064.9 628.297Z" fill="#7F7F7F" fill-rule="evenodd"/><path d="M1005 604.167C1005 594.686 1012.69 587 1022.17 587L1097.83 587C1107.31 587 1115 594.686 1115 604.167L1115 672.833C1115 682.314 1107.31 690 1097.83 690L1022.17 690C1012.69 690 1005 682.314 1005 672.833Z" stroke="#A6A6A6" stroke-width="8" stroke-linecap="round" stroke-linejoin="round" stroke-miterlimit="10" fill="none" fill-rule="evenodd"/></g></svg>