<svg width="119" height="113" xmlns="http://www.w3.org/2000/svg" xmlns:xlink="http://www.w3.org/1999/xlink" overflow="hidden"><defs><clipPath id="clip0"><path d="M161 582 280 582 280 695 161 695Z" fill-rule="evenodd" clip-rule="evenodd"/></clipPath></defs><g clip-path="url(#clip0)" transform="translate(-161 -582)"><path d="M179.507 615.621 210.647 627.054 221.602 618.541 234.521 626.292 262.544 620.931C261.139 625.118 259.727 629.302 258.322 633.489L274.331 632.772 274.331 637.001 272.778 637.592 274.331 637.857 274.331 650.542 270.661 650.497 274.331 652.602 274.331 657.395 256.094 652.786C256.527 655.167 256.952 657.544 257.385 659.925L235.975 653.121 230.399 658.873 217.119 653.318 206.953 657.022 198.218 651.948 176.216 656.309C176.332 653.759 176.441 651.208 176.558 648.658L165.554 646.476 165.554 640.382 165.895 640.326 165.554 640.193 165.554 632.211 172.084 632.676 165.554 629.204 165.554 623.545 184.881 626.117Z" stroke="#A6A6A6" stroke-width="6" stroke-linecap="round" stroke-linejoin="round" stroke-miterlimit="10" fill="#7F7F7F" fill-rule="evenodd"/><path d="M165 604.167C165 594.686 172.686 587 182.167 587L257.833 587C267.314 587 275 594.686 275 604.167L275 672.833C275 682.314 267.314 690 257.833 690L182.167 690C172.686 690 165 682.314 165 672.833Z" stroke="#A6A6A6" stroke-width="8" stroke-linecap="round" stroke-linejoin="round" stroke-miterlimit="10" fill="none" fill-rule="evenodd"/></g></svg>