<svg width="120" height="113" xmlns="http://www.w3.org/2000/svg" xmlns:xlink="http://www.w3.org/1999/xlink" overflow="hidden"><defs><clipPath id="clip0"><path d="M1000 417 1120 417 1120 530 1000 530Z" fill-rule="evenodd" clip-rule="evenodd"/></clipPath></defs><g clip-path="url(#clip0)" transform="translate(-1000 -417)"><path d="M1005 439.167C1005 429.686 1012.69 422 1022.17 422L1097.83 422C1107.31 422 1115 429.686 1115 439.167L1115 507.833C1115 517.314 1107.31 525 1097.83 525L1022.17 525C1012.69 525 1005 517.314 1005 507.833Z" stroke="#A6A6A6" stroke-width="8" stroke-linecap="round" stroke-linejoin="round" stroke-miterlimit="10" fill="none" fill-rule="evenodd"/><path d="M1067.6 460.901C1070.75 460.805 1073.19 461.571 1074.64 463.301 1080.45 470.221 1068.36 489.945 1047.63 507.355 1039.85 513.883 1031.97 519.16 1024.84 522.84L1021.24 524.49 1004.88 505.699 1007.39 502.059C1012.25 495.677 1018.81 488.822 1026.58 482.294 1042.13 469.236 1058.12 461.189 1067.6 460.901Z" stroke="#A6A6A6" stroke-width="8" stroke-linecap="round" stroke-linejoin="round" stroke-miterlimit="10" fill="#7F7F7F" fill-rule="evenodd"/></g></svg>