<svg width="120" height="113" xmlns="http://www.w3.org/2000/svg" xmlns:xlink="http://www.w3.org/1999/xlink" overflow="hidden"><defs><clipPath id="clip0"><path d="M588 423 708 423 708 536 588 536Z" fill-rule="evenodd" clip-rule="evenodd"/></clipPath></defs><g clip-path="url(#clip0)" transform="translate(-588 -423)"><path d="M593 445.167C593 435.686 600.686 428 610.167 428L685.833 428C695.314 428 703 435.686 703 445.167L703 513.833C703 523.314 695.314 531 685.833 531L610.167 531C600.686 531 593 523.314 593 513.833Z" stroke="#A6A6A6" stroke-width="8" stroke-linecap="round" stroke-linejoin="round" stroke-miterlimit="10" fill="none" fill-rule="evenodd"/><path d="M674.298 465.725 650.308 487.454 660.031 486.397 650.081 495.091 668.577 492.385 642.182 505.165C643.93 506.696 645.671 508.229 647.419 509.76L629.526 516.964 629.516 524.467 617.593 527.937 615.301 532.62 596.591 512.236 597.225 512.017 598.969 499.363 612.018 497.741 626.621 477.646C628.311 481.582 629.993 485.521 631.682 489.458L649.181 472.076 643.46 484.227Z" stroke="#A6A6A6" stroke-width="6" stroke-linecap="round" stroke-linejoin="round" stroke-miterlimit="10" fill="#7F7F7F" fill-rule="evenodd"/><path d="M597.532 527.559C594.251 523.048 593.322 518.133 595.456 516.581 597.59 515.029 601.979 517.428 605.26 521.939 608.541 526.45 609.47 531.365 607.336 532.917 605.202 534.469 600.813 532.07 597.532 527.559Z" fill="#A6A6A6" fill-rule="evenodd"/></g></svg>