<!--?xml version="1.0" encoding="utf-8"?-->
<!-- Generator: Adobe Illustrator 15.1.0, SVG Export Plug-In . SVG Version: 6.00 Build 0)  -->

<svg version="1.1" id="_x32_" xmlns="http://www.w3.org/2000/svg" xmlns:xlink="http://www.w3.org/1999/xlink" x="0px" y="0px" width="512px" height="512px" viewBox="0 0 512 512" style="width: 256px; height: 256px; opacity: 1;" xml:space="preserve">
<style type="text/css">

	.st0{fill:#4B4B4B;}

</style>
<g>
	<path class="st0" d="M39.128,388.336c-1.313,0-20.625,25.063-28.859,39.438c-11.234,19.563-15.953,41.813,0,57.75
		c15.922,15.938,41.766,15.938,57.719,0c15.938-15.938,11.531-38.375,0-57.75C61.347,416.648,40.425,388.336,39.128,388.336z" style="fill: rgb(255, 255, 255);"></path>
	<path class="st0" d="M507.801,72.43c6.22-13.719,5.501-28.188-1.938-39.719c-7.266-11.219-20.156-18.188-33.688-18.188
		c-15.844,0-29.375,9.031-36.219,24.188c-3.281,7.219-25.735,56.875-52.282,115.594l-50.969,112.719
		c-0.313,0.688-0.641,1.406-0.969,2.125c-0.266,0.625-0.563,1.25-0.844,1.875c-1.5-0.313-3-0.625-4.5-0.906
		c-5.375-1.031-10.766-1.969-16.125-2.75c-12.797-1.844-25.547-2.938-37.938-2.938c-22.594,0-46.281,3.625-69.625,8.938
		c-35.016,7.969-69.344,19.813-97.313,29.563c-13.984,4.875-26.406,9.219-36.328,12.25c-4.938,1.531-9.266,2.75-12.719,3.531
		c-1.734,0.375-3.25,0.656-4.484,0.844c-1.234,0.156-2.156,0.219-2.688,0.219H37.253v39.188h11.922c0.703,0,2.141,0.125,4.016,0.438
		c3.547,0.625,8.625,1.938,14.656,3.75c10.594,3.25,24.25,8.031,39.734,13.438c23.219,8.063,50.625,17.438,79.047,24.844
		c28.453,7.406,57.906,12.875,85.703,12.875c8.375,0,16.938-0.5,25.578-1.406c18.125-1.906,36.594-5.563,54.703-10.094
		c16.531-4.125,32.734-8.969,48.109-13.938c15.328-4.969,29.813-10,42.766-14.531c12.953-4.5,24.406-8.5,33.563-11.25
		c4.563-1.375,8.578-2.469,11.766-3.156c1.609-0.344,3.016-0.625,4.141-0.75c1.141-0.188,2.016-0.219,2.516-0.219h11.922v-39.188
		h-11.922c-0.656,0-1.906-0.094-3.578-0.375c-2.891-0.438-6.969-1.438-11.797-2.844c-7.266-2.094-16.281-5.125-26.5-8.656
		c-5.109-1.75-10.547-3.656-16.219-5.625c0.344-0.781,0.719-1.531,1.047-2.281c16.047-36.125,9.547-61.844,5.594-77.438
		c-0.484-1.906-1.094-4.313-1.406-5.938l29.516-65.25C488.629,114.867,505.426,77.742,507.801,72.43z M423.394,210.961
		c-5.344,11.813,17.438,36.406-3.828,82.563c-0.297,0.625-0.625,1.313-0.938,1.969c-0.047,0.094-0.094,0.188-0.141,0.281
		c-0.563-0.188-1.094-0.375-1.656-0.563c-0.344,0.656-0.656,1.344-0.984,2.031c-2.891,6.031-6.516,12.375-11.016,19.094
		c0.422,0.156,0.828,0.281,1.234,0.406c-2.438,3.531-5.109,7.156-8.047,10.844c-15.578,19.719-29.219,35.063-40.781,46.5
		c-0.969,0.969-1.906,1.875-2.828,2.781c-17.219,4.281-34.656,7.75-51.531,9.5c-0.016-0.563-0.016-1.156,0.016-1.719
		c0.141-2.563,0.828-5.344,2.141-8.281c1.938-4.281,16.984-37.563,36.828-81.469c2.891-6.344,5.875-12.938,8.922-19.719
		c0.266-0.594,0.531-1.188,0.813-1.781c41.75-92.344,97.141-214.813,102.454-226.531c3.938-8.75,11.094-12.5,18.125-12.5
		c12.859,0,25.375,12.531,17.547,29.906C485.535,73.555,436.941,180.992,423.394,210.961z" style="fill: rgb(255, 255, 255);"></path>
</g>
</svg>
