<svg width="119" height="113" xmlns="http://www.w3.org/2000/svg" xmlns:xlink="http://www.w3.org/1999/xlink" overflow="hidden"><defs><clipPath id="clip0"><path d="M161 251 280 251 280 364 161 364Z" fill-rule="evenodd" clip-rule="evenodd"/></clipPath></defs><g clip-path="url(#clip0)" transform="translate(-161 -251)"><path d="M254.084 361 185.916 361C174.365 361 165 351.635 165 340.083L165 308 275 308 275 340.083C275 351.635 265.635 361 254.084 361Z" fill="#7F7F7F" fill-rule="evenodd"/><path d="M165 272.334C165 262.761 172.761 255 182.334 255L257.666 255C267.239 255 275 262.761 275 272.334L275 341.666C275 351.239 267.239 359 257.666 359L182.334 359C172.761 359 165 351.239 165 341.666Z" stroke="#A6A6A6" stroke-width="8" stroke-linecap="round" stroke-linejoin="round" stroke-miterlimit="10" fill="none" fill-rule="evenodd"/><path d="M0 0 33.5171 0.000209974" stroke="#A6A6A6" stroke-width="8" stroke-linecap="round" stroke-linejoin="round" stroke-miterlimit="10" fill="none" fill-rule="evenodd" transform="matrix(1 0 0 -1 165 307)"/><path d="M242 307 275.297 307" stroke="#A6A6A6" stroke-width="8" stroke-linecap="round" stroke-linejoin="round" stroke-miterlimit="10" fill="none" fill-rule="evenodd"/><path d="M208.301 291.42C209.273 299.112 204.661 306.089 198 307.003 197.85 307.024 197.699 307.041 197.548 307.055" stroke="#A6A6A6" stroke-width="8" stroke-linecap="round" stroke-linejoin="round" stroke-miterlimit="10" fill="none" fill-rule="evenodd"/><path d="M16.0137 0.00890055C25.1809-0.264873 32.8793 5.69586 33.2083 13.3226 33.2155 13.4877 33.219 13.653 33.219 13.8183" stroke="#A6A6A6" stroke-width="8" stroke-linecap="round" stroke-linejoin="round" stroke-miterlimit="10" fill="none" fill-rule="evenodd" transform="matrix(0.0931601 0.995651 0.995651 -0.0931601 229.38 275.115)"/></g></svg>