<svg width="120" height="113" xmlns="http://www.w3.org/2000/svg" xmlns:xlink="http://www.w3.org/1999/xlink" overflow="hidden"><defs><clipPath id="clip0"><path d="M1000 252 1120 252 1120 365 1000 365Z" fill-rule="evenodd" clip-rule="evenodd"/></clipPath></defs><g clip-path="url(#clip0)" transform="translate(-1000 -252)"><path d="M1005 274.167C1005 264.686 1012.69 257 1022.17 257L1097.83 257C1107.31 257 1115 264.686 1115 274.167L1115 342.833C1115 352.314 1107.31 360 1097.83 360L1022.17 360C1012.69 360 1005 352.314 1005 342.833Z" stroke="#A6A6A6" stroke-width="8" stroke-linecap="round" stroke-linejoin="round" stroke-miterlimit="10" fill="none" fill-rule="evenodd"/><path d="M1031 308.5C1031 292.76 1043.76 280 1059.5 280 1075.24 280 1088 292.76 1088 308.5 1088 324.24 1075.24 337 1059.5 337 1043.76 337 1031 324.24 1031 308.5Z" stroke="#A6A6A6" stroke-width="6" stroke-linecap="round" stroke-linejoin="round" stroke-miterlimit="10" fill="#7F7F7F" fill-rule="evenodd"/></g></svg>